<?xml version="1.0" encoding="UTF-8" standalone="no"?>
<!-- Created with Inkscape (http://www.inkscape.org/) -->

<svg
   version="1.1"
   id="svg1"
   width="528.96857"
   height="478.97052"
   viewBox="0 0 528.96856 478.97052"
   sodipodi:docname="Bull 11b.svg"
   inkscape:version="1.3.2 (091e20ef0f, 2023-11-25)"
   xmlns:inkscape="http://www.inkscape.org/namespaces/inkscape"
   xmlns:sodipodi="http://sodipodi.sourceforge.net/DTD/sodipodi-0.dtd"
   xmlns="http://www.w3.org/2000/svg"
   xmlns:svg="http://www.w3.org/2000/svg">
  <defs
     id="defs1" />
  <sodipodi:namedview
     id="namedview1"
     pagecolor="#ffffff"
     bordercolor="#000000"
     borderopacity="0.25"
     inkscape:showpageshadow="2"
     inkscape:pageopacity="0.0"
     inkscape:pagecheckerboard="0"
     inkscape:deskcolor="#d1d1d1"
     showgrid="false"
     inkscape:zoom="1.0289025"
     inkscape:cx="242.97735"
     inkscape:cy="249.29476"
     inkscape:window-width="1920"
     inkscape:window-height="1011"
     inkscape:window-x="0"
     inkscape:window-y="0"
     inkscape:window-maximized="1"
     inkscape:current-layer="layer2" />
  <g
     inkscape:groupmode="layer"
     id="layer2"
     inkscape:label="Layer 1">
    <path
       style="fill:#000000;stroke-width:2.30467"
       d="m 277.26889,517.90873 c -6.5854,-0.67587 -15.83971,-1.443 -20.56515,-1.70471 -8.13923,-0.4508 -8.80387,-0.90069 -12.62056,-8.54287 -2.21589,-4.43687 -4.41143,-10.72202 -4.87898,-13.96701 -1.04104,-7.22513 -6.68761,-12.35306 -13.60248,-12.35306 -13.07207,0 -16.60959,-6.40951 -17.10316,-30.98838 -0.35865,-17.86065 -0.35554,-17.87397 5.63327,-24.05767 3.29567,-3.40291 6.00485,-5.47711 6.02036,-4.60933 0.0161,0.8678 0.75402,0.43187 1.64109,-0.9687 1.01739,-1.60635 0.25768,-6.03071 -2.05786,-11.98426 -2.01889,-5.19078 -4.80127,-12.34165 -6.1831,-15.89084 -1.38181,-3.54918 -6.72893,-17.5182 -11.88249,-31.04223 -5.15355,-13.52406 -10.0999,-25.96926 -10.99185,-27.656 -0.89197,-1.68676 -6.39005,-15.09717 -12.21793,-29.80094 -5.82789,-14.70377 -11.28284,-27.52232 -12.12211,-28.48567 -0.83927,-0.96335 -1.52595,-3.25624 -1.52595,-5.0953 0,-1.83905 -0.95922,-5.19925 -2.13159,-7.46711 -4.58839,-8.87585 -5.24334,-10.65445 -5.24334,-14.2389 0,-2.04186 -0.91222,-3.71247 -2.02716,-3.71247 -1.29606,0 -1.72853,-2.99224 -1.19916,-8.2968 0.45539,-4.56324 0.74535,-8.30813 0.64435,-8.32199 -0.10099,-0.0138 -7.23591,-0.50147 -15.85536,-1.08363 -8.61946,-0.58213 -18.16077,-2.14264 -21.20293,-3.4678 -3.04216,-1.32516 -8.43508,-2.9724 -11.98426,-3.66055 -7.607096,-1.47494 -30.670189,-8.06375 -35.952797,-10.27123 -4.440049,-1.85539 -12.548065,-4.21152 -13.827996,-4.01832 -1.765496,0.26651 -7.374931,-5.7159 -7.374931,-7.8653 0,-1.19047 4.770659,-6.64792 10.601464,-12.1277 5.830805,-5.47976 10.423064,-10.51269 10.205021,-11.18427 -0.218044,-0.67158 2.479664,-3.1749 5.994907,-5.56293 3.515242,-2.38803 6.818868,-5.58639 7.341389,-7.10747 0.522521,-1.52108 4.254831,-5.20637 8.294021,-8.18954 9.330772,-6.8913 9.671232,-12.19619 1.121853,-17.48 C 79.790915,129.02696 51.765633,97.991186 49.73345,89.6603 49.006454,86.679991 46.901601,82.116752 45.055999,79.519767 41.139097,74.008211 37.619374,62.30927 37.6047,54.752964 c -0.0099,-5.125863 0.122332,-5.201995 4.138118,-2.38136 9.327841,6.551766 38.041626,23.646179 40.36773,24.032453 1.374482,0.228254 4.158417,1.314031 6.186523,2.412854 2.028106,1.098823 6.591345,2.610785 10.140533,3.359917 3.549186,0.749132 8.876746,2.601422 11.839016,4.116198 2.96228,1.514776 7.94035,3.156411 11.0624,3.648077 3.12204,0.491668 7.09737,1.65401 8.83405,2.582986 1.73669,0.928977 5.47024,2.015244 8.2968,2.413931 2.82655,0.398686 9.28759,1.54266 14.35785,2.542162 5.07027,0.999503 14.46144,1.823843 20.86927,1.831866 9.23701,0.01152 11.84276,-0.616367 12.57823,-3.031076 0.51018,-1.675117 1.69941,-4.290185 2.64274,-5.811264 0.94329,-1.52108 2.50307,-4.581934 3.46617,-6.801897 2.85013,-6.569674 8.52572,-8.460733 21.29032,-7.093762 10.87106,1.164193 11.73089,0.966895 15.24271,-3.497674 2.86749,-3.645422 5.35367,-4.718004 10.83136,-4.672826 3.91028,0.03224 8.68375,1.250194 10.60773,2.70654 1.92398,1.456346 4.2056,2.210673 5.07026,1.676283 0.86467,-0.53439 1.57213,-0.01913 1.57213,1.144824 0,1.164041 2.5527,-0.0315 5.67266,-2.656789 5.97941,-5.031344 12.94529,-6.015254 20.97444,-2.962579 3.44735,1.310675 7.02649,1.041961 12.96184,-0.973138 8.65798,-2.939461 15.99717,-2.160624 19.50849,2.07024 1.40388,1.691588 3.13075,2.001257 5.14588,0.922786 1.66812,-0.892745 3.67193,-1.615794 4.45291,-1.606774 0.78101,0.009 4.3278,-0.52911 7.8818,-1.195843 4.80115,-0.900702 8.22685,-0.220257 13.32987,2.647681 6.48339,3.643723 7.43607,3.710524 17.00861,1.192612 10.83442,-2.849833 9.50353,-3.188708 21.71111,5.528048 3.8989,2.783997 4.45432,2.761769 7.85333,-0.314292 4.50802,-4.079708 17.08408,-3.975408 23.44811,0.194468 2.43661,1.596516 5.2545,5.267438 6.26204,8.157602 2.68707,7.708202 13.36339,8.857751 36.59952,3.940779 5.57729,-1.180204 12.07325,-2.514013 14.43548,-2.964017 9.17301,-1.747467 34.81763,-12.502751 37.18904,-15.596982 0.50703,-0.661571 4.55775,-2.374186 9.00163,-3.805808 4.44388,-1.431624 9.04768,-3.570861 10.23069,-4.753862 1.18301,-1.182999 5.01422,-3.631562 8.51383,-5.441245 7.37212,-3.81221 15.7013,-9.600209 20.59217,-14.309614 7.1207,-6.856506 8.84508,0.538333 4.24439,18.201591 -2.69444,10.344675 -14.73532,31.661492 -24.51001,43.39181 -8.09592,9.71567 -23.26879,23.6792 -25.76803,23.71421 -1.26757,0.0178 -2.30467,0.92123 -2.30467,2.00771 0,1.08649 -1.35581,3.33125 -3.01294,4.98836 -2.78807,2.78808 -1.92813,4.05451 11.52333,16.97005 7.99496,7.67642 15.03677,13.75474 15.6485,13.50738 1.34288,-0.54301 25.65216,23.18018 25.55027,24.93426 -0.11017,1.89596 -16.26191,9.21337 -27.58437,12.49682 -5.57729,1.6174 -10.97021,3.5744 -11.98426,4.34891 -1.75858,1.34316 -6.17895,2.51423 -18.43733,4.88448 -3.04216,0.58822 -5.94604,1.62791 -6.45306,2.31039 -0.50703,0.6825 -3.82575,1.51255 -7.37493,1.84456 -3.54919,0.33201 -7.28275,1.11977 -8.2968,1.75055 -1.01406,0.63081 -3.08825,1.29898 -4.60933,1.48485 -1.52108,0.18599 -7.61958,0.90226 -13.55222,1.59195 -10.46372,1.21645 -10.75848,1.40112 -9.84676,6.16846 0.96552,5.04867 -9.35286,39.86803 -15.38888,51.92966 -1.77611,3.54919 -7.9953,20.55762 -13.82041,37.79652 -5.82511,17.2389 -11.19111,32.17314 -11.92441,33.18719 -0.7333,1.01406 -4.02775,10.14053 -7.32096,20.28106 -5.88531,18.1221 -8.29096,24.40831 -13.96696,36.49711 -3.54553,7.55133 -2.24099,11.16793 5.72331,15.86698 6.87049,4.0537 9.19032,9.96381 7.49869,19.10416 -0.60753,3.2827 -1.86526,10.62331 -2.79496,16.3125 -0.9297,5.68918 -2.747,12.03588 -4.03842,14.10381 -2.68952,4.30662 -12.93194,9.66128 -18.48012,9.66128 -5.33943,0 -8.55767,3.89673 -10.05943,12.18025 -2.00354,11.05108 -5.61295,16.75898 -11.34431,17.93987 -2.82487,0.58204 -9.28453,2.01527 -14.35479,3.18493 -12.44734,2.87148 -50.69913,4.7779 -65.46333,3.2626 z"
       id="path1"
       transform="translate(-37.604282,-39.47196)" />
    <path
       id="path2"
       style="display:inline;fill:#784421;stroke-width:2.30467"
       d="M 301.2703 68.345007 C 297.94552 68.345007 288.34256 78.053923 288.34256 81.415319 C 288.34256 86.282362 285.75204 85.824867 282.87577 80.450476 C 277.32279 70.074678 263.33511 70.781429 257.67655 81.723913 L 254.94217 87.011022 L 250.84061 80.905554 C 245.20568 72.515058 235.85128 71.557001 228.76249 78.645788 C 226.03909 81.369185 223.81131 85.559484 223.81131 87.956335 C 223.81131 93.752775 221.74575 93.449475 215.80545 86.782507 C 209.54641 79.757784 201.55721 79.368659 195.1492 85.776647 C 190.69006 90.235792 189.30153 95.907476 192.00663 98.612585 C 192.76715 99.373123 193.43139 100.54787 193.48124 101.22391 C 193.65061 103.5218 196.58455 111.65041 199.98319 119.23368 C 204.15192 128.53533 207.69666 149.68551 206.13163 155.92118 C 204.51442 162.36462 199.46855 161.99329 199.8992 155.46219 C 200.08311 152.67357 200.14532 148.0078 200.03788 145.09501 C 199.8784 140.77146 199.36774 140.19221 197.25858 141.94266 C 193.815 144.80059 185.58203 161.85442 184.19022 169.01102 C 183.08997 174.66842 183.20256 174.76709 195.60819 178.88212 C 220.90614 187.27361 248.05281 207.56849 259.62186 226.73954 C 279.61664 259.87277 281.88944 267.41562 281.88944 300.65555 C 281.88944 328.59099 279.23199 342.25447 269.79569 362.86063 C 267.82716 367.15929 266.21756 371.1415 266.21756 371.70829 C 266.21756 372.27508 263.11 377.46915 259.31131 383.25126 C 255.51262 389.03332 251.98642 394.67042 251.47538 395.7786 C 250.04794 398.87418 238.79088 412.51225 227.03788 425.38602 C 217.58746 435.73769 216.43691 437.8536 216.44608 444.88016 C 216.46218 456.59939 219.64886 465.95041 225.0867 470.22782 C 231.18771 475.02685 246.38678 479.48568 263.2742 481.43094 C 282.4341 483.63798 336.11123 482.0527 358.18045 478.62821 C 387.17477 474.12921 392.69231 470.13375 395.28983 451.75712 C 397.43019 436.61486 396.04872 430.56632 389.49881 426.41923 C 383.19004 422.42478 365.77811 402.30203 365.77811 399.00516 C 365.77811 397.74409 364.69895 396.04849 363.37967 395.23759 C 359.00304 392.5474 344.28908 368.16091 338.57303 354.1243 C 329.20838 331.12798 326.86678 320.97537 325.81913 298.8118 C 324.29106 266.48523 330.15369 246.76494 348.29178 223.21805 C 357.56576 211.17858 373.58157 196.07957 382.4617 191.00321 C 392.34255 185.3548 412.3792 177.23863 416.59061 177.17899 C 418.67843 177.14939 421.82598 176.07195 423.5867 174.78446 C 426.49394 172.65863 426.54316 171.85435 424.10819 166.02665 C 422.63345 162.49713 421.83253 157.48451 422.32889 154.88798 C 422.89533 151.92481 422.14602 149.26716 420.31717 147.7493 C 418.71456 146.41926 417.34549 143.15011 417.2742 140.48563 C 417.203 137.82115 416.46466 133.98248 415.63358 131.95438 C 414.24953 128.57697 413.95039 128.732 412.07499 133.79813 C 410.94881 136.84029 409.19797 140.76974 408.18436 142.53055 C 407.17074 144.29139 406.34061 148.18292 406.34061 151.17899 C 406.34061 159.08683 403.67749 159.51006 399.75467 152.22587 C 396.35913 145.92069 396.36442 145.84118 400.41483 142.06766 C 402.66036 139.97564 404.49686 137.40074 404.49686 136.34696 C 404.49686 135.29318 407.30478 128.48092 410.73709 121.20829 C 418.61576 104.51442 419.58838 100.15526 417.28788 91.823522 C 413.56358 78.335227 400.33351 74.015242 390.63944 83.122351 C 385.3544 88.087376 383.54226 87.740826 381.10819 81.292272 C 377.08936 70.645143 364.197 69.426189 355.44803 78.866491 C 351.08847 83.570548 350.88541 83.607831 348.28788 80.175085 C 346.81776 78.232249 345.58965 76.100095 345.55741 75.438757 C 345.52511 74.777421 343.21262 73.440057 340.41874 72.466101 C 334.04905 70.245626 327.81142 72.428078 322.34452 78.790319 L 318.20389 83.610632 L 315.16874 77.741491 C 312.5192 72.617897 306.19874 68.345007 301.2703 68.345007 z M 303.68631 140.86649 C 306.16721 141.02483 307.93208 151.69599 305.66092 157.61454 C 304.26199 161.26006 300.13758 161.4151 298.77811 157.87235 C 297.76113 155.22218 299.78639 145.95205 302.25467 141.95829 C 302.7421 141.1696 303.22689 140.83717 303.68631 140.86649 z M 320.62577 141.26688 C 321.23035 141.26388 321.85851 142.07116 322.42459 143.85477 C 324.00928 148.84767 322.0321 160.53251 319.60233 160.53251 C 318.63421 160.53251 317.85437 157.0063 317.86991 152.69657 C 317.89471 145.82161 319.19386 141.27297 320.62577 141.26688 z M 491.70194 141.47196 C 491.21915 141.50468 490.83883 141.68432 490.53202 141.99344 C 488.89806 143.63972 490.47302 146.12875 497.1453 152.44462 C 504.85384 159.74136 507.83772 164.21805 504.99295 164.21805 C 504.49293 164.21805 498.12104 160.50758 490.8328 155.97196 C 480.43754 149.50281 477.03219 148.18144 475.03006 149.84305 C 472.94271 151.5754 474.0103 153.27212 480.89334 159.15555 C 489.00839 166.0921 491.29018 169.7493 487.50272 169.7493 C 486.50922 169.7493 481.32361 166.43592 475.97928 162.38407 C 470.63493 158.33222 465.27489 155.01343 464.06717 155.00907 C 458.80323 154.98997 460.06836 159.36082 467.29959 166.17118 C 471.58756 170.20958 474.62411 173.98728 474.04569 174.56571 C 472.67326 175.93815 466.01217 173.79694 462.99686 171.01298 C 457.0391 165.51224 448.50161 160.46575 446.86405 161.47782 C 443.43026 163.60002 445.08685 167.48886 451.51249 172.38993 C 457.08671 176.64159 460.22433 182.65555 456.86795 182.65555 C 455.34868 182.65555 444.40318 174.92158 442.9617 172.82938 C 442.31453 171.89007 440.9127 171.66066 439.84647 172.31962 C 438.51755 173.14094 438.70055 176.25961 440.43045 182.23563 C 441.81838 187.03035 443.8588 194.4234 444.96561 198.66532 C 446.4671 204.41983 448.0217 206.54785 451.08866 207.04618 C 458.33129 208.22306 478.61349 206.43617 498.52811 202.86649 C 523.25257 198.4347 549.23124 191.2415 549.23124 188.82743 C 549.23124 187.79911 543.00849 181.64472 535.40311 175.15165 C 527.79772 168.65858 521.16014 162.9167 520.65311 162.39188 C 520.14609 161.86706 513.64378 156.57749 506.20389 150.63602 C 497.81819 143.93923 493.794 141.33017 491.70194 141.47196 z M 387.81522 142.07548 C 388.26443 142.08448 388.73031 142.30503 389.19413 142.76883 C 389.7685 143.34321 390.33518 146.92475 390.45389 150.72782 C 390.6166 155.9412 389.87486 157.80426 387.44217 158.30008 C 384.79592 158.83944 384.21561 157.62618 384.21561 151.55594 C 384.21561 145.99753 385.86865 142.03831 387.81522 142.07548 z M 371.22928 142.09501 C 374.16005 142.09501 375.38665 150.04833 373.30155 155.53251 C 370.87748 161.90828 368.31679 161.91715 367.10038 155.55399 C 366.0254 149.93048 368.42957 142.09501 371.22928 142.09501 z M 336.40897 142.49344 C 336.54002 142.49844 336.67263 142.52346 336.80741 142.56766 C 340.22362 143.68941 340.65086 155.82516 337.36991 158.54813 C 335.03289 160.48767 334.39527 160.09275 333.38944 156.08524 C 331.91107 150.1949 333.74437 142.39432 336.40897 142.49344 z M 354.71561 143.01688 C 356.73 143.01688 357.42209 144.92947 357.26053 150.05985 C 357.01084 157.98898 353.71006 163.01419 351.88163 158.2493 C 349.88258 153.03995 351.74711 143.01688 354.71561 143.01688 z M 271.77811 144.32157 C 271.91376 144.32185 272.05786 144.34714 272.20975 144.39774 C 275.08973 145.35666 276.10543 150.23445 274.64139 156.06766 C 272.77694 163.49621 269.90506 161.07895 269.90506 152.08133 C 269.90506 146.69782 270.46684 144.31881 271.77811 144.32157 z M 287.62577 144.63407 C 288.98579 144.62127 290.18631 147.95654 290.18631 153.15751 C 290.18631 160.06532 288.27872 163.54287 285.8328 161.09696 C 284.34016 159.60433 284.30171 150.69193 285.7703 146.86454 C 286.35682 145.33608 287.00758 144.63986 287.62577 144.63407 z M 256.26834 144.79227 C 257.38314 144.73607 258.47664 146.77568 258.86014 151.31376 C 259.49689 158.84834 258.9893 160.53251 256.07694 160.53251 C 254.18013 160.53251 253.31928 158.65005 253.33866 154.54032 C 253.36756 148.40063 254.83504 144.86447 256.26834 144.79227 z M 222.66678 144.96415 C 223.09989 144.98365 223.52233 145.26707 223.90897 145.87821 C 226.95252 150.68898 225.4626 162.37626 221.80545 162.37626 C 220.91919 162.37626 219.65777 160.24007 219.00272 157.63016 C 217.70153 152.44585 220.32801 144.85902 222.66678 144.96415 z M 237.73514 145.25321 C 238.721 145.25121 239.74752 148.52153 240.04959 152.69657 C 240.6005 160.3106 237.78557 163.61578 235.60038 157.92118 C 234.14088 154.11782 235.49159 145.73318 237.63944 145.26298 C 237.67114 145.25598 237.70334 145.25321 237.73514 145.25321 z M 115.62967 149.91141 C 113.526 149.89845 107.96611 153.21521 103.73319 157.17899 C 102.30497 158.51641 91.374778 168.63894 79.444126 179.67508 C 67.513475 190.71124 58.160049 200.1488 58.658969 200.64774 C 59.913368 201.90212 100.98381 210.19065 112.26639 211.4661 C 117.33666 212.03927 124.80393 213.18424 128.86014 214.01102 C 132.91635 214.83777 141.62623 215.38099 148.21756 215.21805 L 160.20194 214.92118 L 163.25272 201.09305 C 164.93023 193.48766 166.3822 185.41737 166.47928 183.15751 C 166.63936 179.43105 166.22602 179.24305 162.04569 181.14774 C 159.51056 182.30281 157.43631 183.81081 157.43631 184.4993 C 157.43631 185.8804 149.0717 190.03055 146.28788 190.03055 C 142.44212 190.03055 144.99387 185.09472 151.94803 179.07938 C 159.07459 172.91491 161.42869 167.90555 157.19999 167.90555 C 156.05533 167.90555 151.90389 170.8095 147.97538 174.35868 C 141.29372 180.39516 133.46756 182.95883 133.46756 179.11063 C 133.46756 178.17459 136.16114 174.71587 139.45194 171.42508 C 147.92935 162.94766 142.93923 162.36822 131.60233 170.51298 C 116.35886 181.46432 111.88314 178.95539 124.45584 166.50712 C 128.62515 162.37908 131.4793 158.09836 130.79764 156.9954 C 129.28527 154.54835 124.90257 156.67206 113.38358 165.4329 C 98.5999 176.67672 94.966528 171.50217 108.87186 159.00712 C 113.59698 154.76122 116.9427 150.76546 116.30545 150.12821 C 116.15991 149.98266 115.9302 149.91326 115.62967 149.91141 z M 423.72538 181.51883 C 423.36105 181.4971 422.98146 181.49864 422.5867 181.52274 C 419.71579 181.69806 415.99279 183.05289 410.72733 185.12626 C 390.50346 193.08976 367.32494 210.77606 354.66483 227.9036 C 337.67494 250.88878 331.91056 269.73479 331.85038 302.4993 C 331.81208 323.34321 332.30436 326.86796 337.00858 339.3743 C 339.86931 346.9797 345.03272 358.59548 348.48124 365.1868 C 355.53294 378.66509 376.27879 405.74735 379.55155 405.74735 C 380.72734 405.74735 383.20193 402.63597 385.04959 398.83329 C 404.3599 359.09104 443.19277 243.85878 443.22342 226.20829 C 443.22842 224.05667 440.20442 213.36273 436.50663 202.44462 C 431.43276 187.46369 429.19024 181.84489 423.72538 181.51883 z M 184.38553 184.57938 C 180.08513 184.41133 179.74803 185.42915 178.81913 189.33915 C 178.12641 192.25503 174.9534 202.74466 171.7703 212.64969 C 167.89038 224.72297 166.59567 231.26998 167.83866 232.51298 C 169.08165 233.75597 174.09241 233.44089 183.04374 231.5579 C 199.76476 228.04052 206.04354 228.03311 217.48514 231.51883 C 245.48957 240.0504 255.05494 274.30767 235.6453 296.55399 C 227.9058 305.42459 224.33375 303.02441 229.40116 292.35868 C 231.32829 288.30246 232.93315 283.11686 232.96756 280.83524 C 233.02306 277.15538 232.11777 276.6868 224.9578 276.6868 C 220.51841 276.6868 213.68044 275.34727 209.76249 273.71024 C 203.56554 271.12099 199.73375 268.56256 189.30936 260.05594 C 187.92449 258.92584 187.26051 254.36968 187.56717 248.09891 L 188.06131 237.96805 L 180.58475 237.99735 C 166.87322 238.04925 166.81413 236.98699 183.25858 285.17704 C 191.52711 309.40772 200.64181 336.34435 203.51444 345.03641 C 213.39598 374.93629 229.284 407.54769 233.95194 407.51298 C 234.96599 407.50598 239.67485 402.33533 244.41678 396.02274 C 254.57662 382.49774 262.8108 365.25434 267.06522 348.59305 C 268.74829 342.00171 270.90498 333.60755 271.85819 329.94071 C 274.8103 318.5845 273.83216 291.69542 269.8992 276.08719 C 257.43485 226.6216 224.11346 188.58197 190.17655 185.07938 C 187.69407 184.82317 185.819 184.6354 184.38553 184.57938 z M 412.41288 227.51298 C 413.74847 227.51275 415.10534 227.55268 416.48124 227.63016 C 422.56554 227.97256 430.24027 228.36439 433.53592 228.50126 C 440.5 228.7905 441.78118 232.4368 434.91874 232.4368 C 432.12562 232.4368 430.30936 233.48802 430.30936 235.10477 C 430.30936 237.86576 422.5977 253.28851 419.12577 257.47196 C 415.43392 261.92036 394.70452 271.54365 386.21952 272.74735 C 378.36409 273.86177 377.72266 274.36287 377.19413 279.8079 C 376.88118 283.03195 377.91829 288.17144 379.49881 291.22782 C 382.832 297.67349 383.00621 298.8118 380.65506 298.8118 C 379.71005 298.8118 377.33079 296.53013 375.36991 293.74149 C 364.76416 278.65864 363.02809 265.9047 369.65897 251.79813 C 376.99154 236.19874 392.37877 227.51639 412.41288 227.51298 z M 350.35038 425.23759 C 356.88563 425.24458 362.09061 428.7388 362.09061 434.44657 C 362.09061 441.22879 356.07989 444.3184 347.39139 441.9993 C 341.189 440.34381 339.57916 440.5588 336.36014 443.47196 C 334.2874 445.34778 332.59256 448.41156 332.59256 450.28251 C 332.59256 455.67577 329.31818 454.2344 328.00663 448.26298 C 326.2001 440.03788 330.93165 432.46742 340.97928 427.50907 C 344.13526 425.95165 347.3798 425.2344 350.35038 425.23759 z M 260.26053 429.11649 C 268.85588 429.24039 279.85524 435.20647 281.92459 444.62821 C 283.39552 451.32532 280.85065 456.51911 277.66092 453.32938 C 276.43739 452.10584 275.43631 450.06602 275.43631 448.79813 C 275.43631 444.70269 269.92547 443.13003 262.51249 445.10868 C 254.19154 447.32966 249.62381 444.74915 249.62381 437.82938 C 249.62381 431.68089 254.37951 429.03172 260.26053 429.11649 z M 359.32499 484.10673 L 341.81131 485.0286 C 332.17781 485.53562 307.41429 485.86157 286.78202 485.75321 L 249.26834 485.55594 L 250.36795 491.05399 C 250.9727 494.07776 251.46756 498.08812 251.46756 499.9661 C 251.46756 504.37372 258.10046 508.65846 268.28202 510.82743 C 279.25796 513.1656 329.13845 511.44802 342.47147 508.27274 C 355.93866 505.06555 358.94708 502.14018 359.15897 492.04423 L 359.32499 484.10673 z "
       transform="translate(-37.604282,-39.47196)" />
    <path
       id="path3"
       style="display:inline;fill:#ffff00;stroke-width:2.30467"
       d="M 398.78006 238.12235 C 396.48333 238.06007 393.70792 238.70672 389.98319 240.00516 C 380.08205 243.45672 377.48966 252.99785 384.67655 259.53641 C 388.57583 263.08396 392.4426 265.1433 395.83084 265.47782 C 396.64174 265.55782 399.65333 264.41063 402.52225 262.92704 C 410.96091 258.56325 412.69076 248.89685 406.26834 242.00321 C 403.89457 239.45525 401.73301 238.20243 398.78006 238.12235 z M 215.39334 239.8118 C 208.89424 239.8118 206.72551 240.78746 202.77225 245.48563 C 196.76001 252.63078 196.8036 253.64982 203.38944 260.23563 C 208.61867 265.46487 214.61963 266.91421 220.96366 264.47977 C 224.60279 263.0833 230.29674 252.84002 229.55155 249.03055 C 228.39774 243.13227 223.29814 239.8118 215.39334 239.8118 z "
       transform="translate(-37.604282,-39.47196)" />
    <path
       id="path4"
       style="fill:#ffe680;stroke-width:2.30467"
       d="M 562.0203 46.667273 C 560.50059 46.606506 556.79799 48.961775 547.84842 54.891882 C 518.44045 74.378014 479.16578 90.404543 442.65506 97.819616 C 433.72718 99.632808 426.23527 101.41882 426.00663 101.78641 C 419.81334 111.74291 417.85307 123.13791 421.24295 129.47196 C 422.34027 131.52234 423.63571 135.39254 424.12186 138.07352 C 425.55222 145.96146 432.22987 155.42996 435.62381 154.38212 C 437.26427 153.87564 444.68705 151.71278 452.11795 149.57548 C 466.17571 145.53213 487.84434 134.90588 506.82499 122.74735 C 519.5535 114.59377 541.26019 93.483335 549.75467 80.999304 C 556.49686 71.090605 563.05741 55.376883 563.05741 49.136023 C 563.05741 47.609973 562.93212 46.703733 562.0203 46.667273 z M 42.053501 56.262976 C 41.070264 56.340448 41.575377 58.113195 42.252719 61.200476 C 45.76181 77.194678 68.516084 106.62647 88.74686 121.3411 C 104.23286 132.60466 125.19349 144.16587 139.92069 149.56571 C 153.75172 154.63696 174.3501 160.33011 176.79569 159.75712 C 177.80974 159.51953 180.47378 156.48594 182.71561 153.01493 C 184.95743 149.54392 188.8985 143.87429 191.47342 140.41532 C 197.16507 132.7696 197.34969 127.02264 192.29374 114.85673 C 187.97821 104.47239 186.18489 103.68942 165.73319 103.26298 C 138.68094 102.69891 80.877988 82.631523 56.032016 65.178991 C 47.043149 58.864949 43.317663 56.163369 42.053501 56.262976 z "
       transform="translate(-37.604282,-39.47196)" />
  </g>
</svg>
